<svg id="Layer_1" data-name="Layer 1" width="48" height="48" viewBox="0 0 47.92 48" class=""><defs><style>.cls-1{fill:#ffffff;}</style></defs><path class="cls-1" d="M48,23.58A24.27,24.27,0,0,1,27.12,47.79,22.92,22.92,0,0,1,24,48a23.49,23.49,0,0,1-11.95-3.25l0,0A24.48,24.48,0,0,1,.25,26.84l0-.25c0-.25-.06-.51-.08-.76s-.06-.8-.08-1.2c0-.14,0-.28,0-.41v0c0-.2,0-.39,0-.59s0-.34,0-.51v-.27a2.18,2.18,0,0,0,0-.25c0-.22,0-.43,0-.65A24.48,24.48,0,0,1,12,2.45,23.93,23.93,0,0,1,16.19.52s0,0,0,0c.2-.08.39-.14.59-.2h0A7.94,7.94,0,0,1,19,0H43.14a8.31,8.31,0,0,1-8.23,8.39H23.68a14.85,14.85,0,0,0-4.34.74,15,15,0,0,0-6.67,4.5H26.18a8.07,8.07,0,0,1-8,8.14H9.09A15.44,15.44,0,0,0,9,23.58a15.16,15.16,0,0,0,15,15.3,14.6,14.6,0,0,0,1.88-.12A15.2,15.2,0,0,0,39,23.58a15.61,15.61,0,0,0-.82-5,23.44,23.44,0,0,1,8.5-2.86A24.91,24.91,0,0,1,48,23.58Z" transform="translate(-0.04 0)"></path></svg>